HIERARCHY
ROOT root
{
	OFFSET 0.000000 0.000000 0.000000
	CHANNELS 6 Xposition Yposition Zposition Zrotation Yrotation Xrotation
	JOINT lhip
	{
		OFFSET 0.058581 -0.082280 -0.017664
		CHANNELS 3 Zrotation Yrotation Xrotation
		JOINT lknee
		{
			OFFSET 0.043451 -0.386469 0.008037
			CHANNELS 3 Zrotation Yrotation Xrotation
			JOINT lankle
			{
				OFFSET -0.014790 -0.426874 -0.037428
				CHANNELS 3 Zrotation Yrotation Xrotation
				JOINT ltoe
				{
					OFFSET 0.041054 -0.060286 0.122042
					CHANNELS 3 Zrotation Yrotation Xrotation
					End Site
					{
						OFFSET 0.000000 0.000000 0.000000
					}
				}
			}
		}
	}
	JOINT rhip
	{
		OFFSET -0.060310 -0.090513 -0.013543
		CHANNELS 3 Zrotation Yrotation Xrotation
		JOINT rknee
		{
			OFFSET -0.043257 -0.383688 -0.004843
			CHANNELS 3 Zrotation Yrotation Xrotation
			JOINT rankle
			{
				OFFSET 0.019056 -0.420046 -0.034562
				CHANNELS 3 Zrotation Yrotation Xrotation
				JOINT rtoe
				{
					OFFSET -0.034840 -0.062106 0.130323
					CHANNELS 3 Zrotation Yrotation Xrotation
					End Site
					{
						OFFSET 0.000000 0.000000 0.000000
					}
				}
			}
		}
	}
	JOINT lowerback
	{
		OFFSET 0.004439 0.124404 -0.038385
		CHANNELS 3 Zrotation Yrotation Xrotation
		JOINT upperback
		{
			OFFSET 0.004488 0.137956 0.026820
			CHANNELS 3 Zrotation Yrotation Xrotation
			JOINT chest
			{
				OFFSET -0.002265 0.056032 0.002855
				CHANNELS 3 Zrotation Yrotation Xrotation
				JOINT lowerneck
				{
					OFFSET -0.013390 0.211636 -0.033468
					CHANNELS 3 Zrotation Yrotation Xrotation
					JOINT upperneck
					{
						OFFSET 0.010113 0.088937 0.050410
						CHANNELS 3 Zrotation Yrotation Xrotation
						End Site
						{
							OFFSET 0.000000 0.000000 0.000000
						}
					}
				}
				JOINT lclavicle
				{
					OFFSET 0.071702 0.114000 -0.018898
					CHANNELS 3 Zrotation Yrotation Xrotation
					JOINT lshoulder
					{
						OFFSET 0.122921 0.045205 -0.019046
						CHANNELS 3 Zrotation Yrotation Xrotation
						JOINT lelbow
						{
							OFFSET 0.255332 -0.015649 -0.022946
							CHANNELS 3 Zrotation Yrotation Xrotation
							JOINT lwrist
							{
								OFFSET 0.265709 0.012698 -0.007375
								CHANNELS 3 Zrotation Yrotation Xrotation
								End Site
								{
									OFFSET 0.000000 0.000000 0.000000
								}
							}
						}
					}
				}
				JOINT rclavicle
				{
					OFFSET -0.082954 0.112472 -0.023707
					CHANNELS 3 Zrotation Yrotation Xrotation
					JOINT rshoulder
					{
						OFFSET -0.113228 0.046853 -0.008472
						CHANNELS 3 Zrotation Yrotation Xrotation
						JOINT relbow
						{
							OFFSET -0.260127 -0.014369 -0.031269
							CHANNELS 3 Zrotation Yrotation Xrotation
							JOINT rwrist
							{
								OFFSET -0.269108 0.006794 -0.006027
								CHANNELS 3 Zrotation Yrotation Xrotation
								End Site
								{
									OFFSET 0.000000 0.000000 0.000000
								}
							}
						}
					}
				}
			}
		}
	}
}
MOTION
Frames: 13
Frame Time: 0.033333
0.258990 0.300549 0.986900 -96.708678 -0.863401 86.896864 -3.597315 -2.648766 0.991705 -5.104937 -13.172393 -0.366078 13.132922 18.742438 -7.675571 0.000000 -0.000000 0.000000 -3.621778 -0.285927 -18.584918 0.350823 -4.231486 70.972767 1.574324 -15.802477 4.275133 0.000000 -0.000000 0.000000 -3.180176 0.500221 -0.292960 1.701194 -0.215715 11.719074 -2.095255 2.422052 -2.571908 -1.919144 -7.548428 3.999749 2.145397 4.320521 -1.616685 -22.843124 -6.386681 0.442548 -59.716522 9.932412 22.559853 12.625976 -31.010113 26.094600 12.383301 -2.937714 -0.621241 20.091388 3.306989 -3.767644 60.612232 -10.519042 17.589949 -9.011562 37.467935 22.463396 -15.064762 4.607388 -7.584541 
0.230020 0.299525 0.989265 -93.687740 -0.097612 86.784550 -3.077671 -2.137993 3.025426 -5.090338 -15.751670 -0.191073 11.824787 18.303063 -9.776594 0.000000 -0.000000 0.000000 -3.065463 -0.067602 -22.252453 1.401613 -5.347161 68.917497 1.833720 -15.371550 -0.325471 0.000000 -0.000000 0.000000 -2.857716 -1.085479 -0.116406 2.146623 -1.058021 11.630621 -1.740458 1.552006 -2.490561 -2.799174 -7.744356 4.841541 2.841451 4.409356 -0.993810 -22.791250 -7.343459 0.642620 -60.141732 6.869475 22.862566 12.893682 -31.698976 25.019104 12.213831 -3.098197 0.303244 19.662289 2.677051 -3.850325 60.569685 -12.019500 17.106356 -8.999547 36.993815 22.912340 -14.127215 4.895829 -7.854992 
0.202301 0.298292 0.990502 -90.743682 0.556145 86.650073 -2.527432 -1.736900 4.720813 -5.236318 -18.202757 0.624850 10.607766 17.880407 -11.925781 0.000000 -0.000000 0.000000 -2.981627 -0.111167 -25.264803 2.305162 -6.316951 64.228589 1.832279 -15.529022 -3.990189 0.000000 -0.000000 0.000000 -2.642601 -2.451731 0.429893 2.503395 -1.857181 11.326260 -1.363409 0.745507 -2.271465 -3.233094 -7.733869 4.979589 3.570799 4.592141 -0.487253 -22.929295 -8.286557 0.827096 -59.994063 3.443392 23.426858 12.694905 -32.510100 24.469434 12.477329 -3.777076 1.093270 19.535530 1.982501 -3.913016 60.536090 -13.353529 16.375773 -9.282663 36.540081 23.072542 -13.521865 4.972046 -7.716448 
0.175110 0.297287 0.990508 -88.091160 1.172587 86.512215 -1.875861 -1.076732 6.457707 -5.212362 -20.287240 1.293507 9.107000 17.187502 -14.205538 0.000000 -0.000000 0.000000 -2.985597 -0.637813 -27.290373 1.749193 -7.456596 57.307026 1.758009 -16.853532 -5.973213 0.000000 -0.000000 0.000000 -2.359706 -3.554757 1.179076 2.791751 -2.558459 10.991195 -1.012440 0.039722 -2.038015 -3.589185 -7.887380 4.917721 4.209065 4.386773 -0.604329 -23.274390 -9.247424 1.140331 -59.462365 -0.060824 23.943224 12.370328 -33.855747 24.005273 12.899896 -4.293793 2.010412 19.307690 1.491429 -4.142168 60.879614 -14.773543 15.446851 -9.634528 35.848160 22.750679 -13.627549 4.748610 -7.796854 
0.148235 0.297411 0.989044 -85.977689 1.572333 86.714784 -1.260872 -0.559624 7.648710 -5.335084 -21.966550 2.364543 7.832471 16.616741 -16.531999 0.000000 -0.000000 0.000000 -3.068737 -1.227772 -28.737267 1.141763 -8.263822 48.824472 1.611172 -18.182085 -6.504310 0.000000 -0.000000 0.000000 -2.345199 -4.279919 1.623310 3.101482 -3.093730 10.709152 -0.666985 -0.542242 -1.852885 -3.631724 -7.743964 4.630139 4.753477 3.990834 -0.864381 -23.326926 -9.960163 1.399180 -59.069721 -3.380839 24.583437 12.112055 -35.485046 23.915866 13.349936 -4.992277 3.069987 19.067830 1.001480 -4.240645 61.525929 -15.991944 14.647697 -10.141801 34.995636 22.231254 -13.544938 4.349530 -8.262330 
0.120905 0.298414 0.986412 -84.712793 1.607711 87.254068 -0.871797 -0.033469 8.704445 -5.462040 -22.921521 3.069475 6.886831 16.135722 -18.564937 0.000000 -0.000000 0.000000 -3.034423 -1.894685 -29.635896 1.284916 -7.715277 38.929179 1.602021 -18.434926 -6.624602 0.000000 -0.000000 0.000000 -2.604705 -4.451531 1.227370 3.343452 -3.447853 11.098901 -0.383725 -0.926395 -1.979429 -3.501416 -7.658014 4.306317 5.007234 3.411202 -0.607573 -23.290174 -10.504152 1.587559 -58.942532 -6.289993 25.235574 12.229823 -37.256690 23.370896 13.761060 -5.475051 4.390522 18.894272 0.602888 -4.274452 62.282415 -17.029955 14.421893 -10.749045 33.822362 21.669419 -13.212224 3.912809 -9.079838 
0.093412 0.299480 0.982913 -83.689316 1.527939 88.138879 -0.575961 0.434626 9.222996 -5.668283 -23.251711 4.041089 6.024760 15.512374 -20.429703 0.000000 -0.000000 0.000000 -2.973634 -2.624376 -29.942722 2.031785 -6.662399 27.747815 1.822182 -17.988344 -5.774203 0.000000 -0.000000 0.000000 -2.799833 -4.443725 0.504768 3.573932 -3.970207 11.440943 -0.204633 -1.224844 -2.250641 -3.564452 -7.626134 4.063230 5.289755 2.926833 -0.690207 -23.393867 -10.682440 1.800182 -58.823766 -8.664110 25.951005 12.346011 -39.180024 22.775070 14.196695 -6.073977 5.491668 18.754783 0.193179 -4.297865 62.815533 -17.850255 14.509397 -10.883835 32.633372 21.728183 -12.748612 3.647558 -9.248724 
0.065022 0.300658 0.978910 -82.804996 1.490248 89.206206 -0.089173 0.844631 9.670382 -5.924706 -23.503852 4.888799 5.082515 14.870201 -22.077955 0.000000 -0.000000 0.000000 -3.015497 -3.009902 -29.428379 3.468872 -5.012764 16.048203 2.203144 -16.745464 -5.798064 0.000000 -0.000000 0.000000 -2.793639 -4.409546 -0.418142 3.768173 -4.487248 11.669425 -0.083489 -1.504287 -2.536350 -3.677874 -7.619878 3.835232 5.404434 2.473946 -0.829077 -23.529113 -10.410571 1.863088 -58.969906 -10.535373 26.775892 12.381024 -40.919009 22.345176 14.487683 -6.977320 6.274812 18.573691 -0.372971 -4.391843 63.143653 -18.550997 14.938706 -10.694895 31.677317 22.298463 -12.432745 3.735435 -9.390194 
0.034754 0.302453 0.975102 -81.918843 1.457075 90.209079 0.578091 1.229450 10.173328 -6.325566 -24.220782 6.136449 3.990251 14.168994 -23.516073 0.000000 -0.000000 0.000000 -3.011885 -3.149471 -28.152452 4.258468 -3.209583 5.571550 2.497319 -15.531100 -5.396279 0.000000 -0.000000 0.000000 -2.798538 -4.390675 -1.581418 3.976928 -5.065342 11.914121 0.062113 -1.789645 -2.647909 -3.789140 -7.643416 3.701816 5.485243 2.505087 -0.779730 -23.973013 -10.358682 2.340013 -58.882037 -11.754283 27.130197 12.305260 -42.566057 22.167693 14.769674 -7.687471 6.964730 18.557347 -0.756555 -4.382765 63.220296 -19.189683 14.927564 -10.332561 31.054599 22.972977 -11.855055 3.855860 -9.362171 
0.002529 0.305302 0.971230 -80.930656 1.236521 91.004465 1.139013 1.122344 10.770181 -6.896325 -25.164465 7.959032 2.973278 13.743987 -24.654827 0.000000 -0.000000 0.000000 -2.955917 -3.595691 -27.406839 4.676375 -3.885992 0.112272 2.415293 -16.256684 -5.038320 0.000000 -0.000000 0.000000 -3.196608 -4.551514 -2.815134 4.189227 -5.589307 12.193380 0.252930 -2.172235 -2.452841 -3.796657 -7.792573 3.456361 5.795082 2.291759 -1.034237 -24.051350 -10.342168 2.780920 -59.197659 -12.460991 27.244360 12.134292 -43.590340 22.263666 14.643780 -8.219879 7.569291 18.610306 -0.987091 -4.360860 63.549398 -19.605008 14.549722 -10.262777 30.645112 23.195268 -11.504644 3.912075 -9.610139 
-0.031463 0.309096 0.968120 -80.762521 1.021837 91.447607 1.479712 0.730729 12.087011 -7.199194 -25.895063 9.382780 2.196663 13.913896 -24.877901 0.000000 -0.000000 0.000000 -2.498185 -3.259307 -27.952522 4.421496 -5.392641 2.468903 2.140746 -17.084146 -5.265844 0.000000 -0.000000 0.000000 -3.584044 -5.001132 -3.329479 4.375242 -5.493414 12.201500 0.298645 -2.313040 -2.639795 -3.651399 -7.727128 3.431288 5.994336 2.359961 -1.249271 -24.053729 -9.680325 2.858358 -59.600361 -12.338954 27.494527 11.517831 -44.069567 22.806977 14.278954 -8.348033 7.611532 18.855003 -1.406601 -4.390433 63.775398 -19.762216 14.653395 -10.334406 30.198560 23.349158 -11.257895 3.972416 -9.876114 
-0.068037 0.312537 0.966236 -80.778833 1.249635 91.623520 2.182564 0.338364 13.762509 -7.593319 -26.749193 11.149507 0.940790 14.134138 -24.823070 0.000000 -0.000000 0.000000 -1.712957 -1.769460 -27.487844 4.287616 -6.398148 6.833046 1.444596 -18.107869 -6.813835 0.000000 -0.000000 0.000000 -3.159323 -5.757867 -4.132523 4.451385 -5.365314 12.450222 0.146411 -2.388046 -2.598344 -3.807356 -7.586138 3.567811 6.066869 2.587348 -1.991833 -24.397334 -9.069917 3.121327 -59.628653 -11.509326 27.353040 11.001969 -44.167246 23.443575 13.894000 -8.473957 7.650235 18.967345 -1.578682 -4.450261 63.979144 -19.694322 14.434839 -10.366527 29.990689 23.567925 -11.403606 4.109599 -10.181867 
-0.107192 0.316319 0.965717 -80.103319 1.448871 92.068587 2.941131 -0.436918 14.534953 -8.433926 -27.176176 14.330650 -0.327331 13.977932 -24.081366 0.000000 -0.000000 0.000000 -1.292668 -0.641112 -25.276517 4.687551 -6.604273 6.179100 -0.467183 -17.705027 -3.923164 0.000000 -0.000000 0.000000 -2.633810 -6.340507 -6.074615 4.603365 -5.969205 13.265722 -0.129266 -2.536726 -2.588660 -4.162963 -7.862952 3.996135 5.776670 2.778987 -2.529810 -25.037067 -9.157146 3.972950 -59.484979 -9.989329 26.772370 10.940953 -43.370165 24.467810 13.327592 -8.718577 7.105411 19.072891 -1.722099 -4.557666 63.881645 -19.914000 13.560488 -10.047454 30.441528 23.994788 -11.167736 4.420861 -10.474643 
